<svg xmlns="http://www.w3.org/2000/svg" width="111" height="113" viewBox="0 0 111 113"><defs><style>.a{fill:#ffebed;}.b{fill:#f69ba2;}</style></defs><g transform="translate(-19 -21)"><rect class="a" width="111" height="113" rx="20" transform="translate(19 21)"/><path class="b" d="M69.477,39.192H67.7V27.156a5.345,5.345,0,0,0-1.57-3.774L55,12.259a5.345,5.345,0,0,0-3.774-1.57h-4.91V5.344A5.346,5.346,0,0,0,40.974,0H5.344A5.346,5.346,0,0,0,0,5.344V40.974a5.346,5.346,0,0,0,5.344,5.344H7.126a10.689,10.689,0,1,0,21.378,0H42.755a10.689,10.689,0,1,0,21.378,0h5.344a1.787,1.787,0,0,0,1.781-1.781V40.974A1.787,1.787,0,0,0,69.477,39.192ZM17.815,51.663a5.344,5.344,0,1,1,5.344-5.344A5.346,5.346,0,0,1,17.815,51.663ZM33.848,24.05a.893.893,0,0,1-.891.891H26.722v6.235a.893.893,0,0,1-.891.891H20.487a.893.893,0,0,1-.891-.891V24.941H13.361a.893.893,0,0,1-.891-.891V18.705a.893.893,0,0,1,.891-.891H19.6V11.58a.893.893,0,0,1,.891-.891h5.344a.893.893,0,0,1,.891.891v6.235h6.235a.893.893,0,0,1,.891.891Zm19.6,27.613a5.344,5.344,0,1,1,5.344-5.344A5.346,5.346,0,0,1,53.444,51.663ZM62.351,28.5H46.318V16.033h4.91L62.351,27.156Z" transform="translate(39.493 48.936)"/></g></svg>