<svg xmlns="http://www.w3.org/2000/svg" width="112" height="113" viewBox="0 0 112 113"><defs><style>.a{fill:#ecedff;}.b{fill:#8586ea;}</style></defs><g transform="translate(-19 -21)"><rect class="a" width="112" height="113" rx="20" transform="translate(19 21)"/><path class="b" d="M25.909,25.015h6.254v6.254a.893.893,0,0,0,.893.893h5.36a.893.893,0,0,0,.893-.893V25.015h6.254a.893.893,0,0,0,.893-.893v-5.36a.893.893,0,0,0-.893-.893H39.31V11.614a.893.893,0,0,0-.893-.893h-5.36a.893.893,0,0,0-.893.893v6.254H25.909a.893.893,0,0,0-.893.893v5.36A.893.893,0,0,0,25.909,25.015ZM64.325,5.36A5.376,5.376,0,0,0,58.965,0H12.508a5.376,5.376,0,0,0-5.36,5.36V42.884H64.325ZM57.178,35.736H14.295V7.147H57.178ZM69.686,46.457H42.609a3.52,3.52,0,0,1-3.656,3.574h-6.79a3.794,3.794,0,0,1-3.66-3.574H1.787A1.787,1.787,0,0,0,0,48.244v1.787a7.168,7.168,0,0,0,7.147,7.147H64.325a7.168,7.168,0,0,0,7.147-7.147V48.244A1.787,1.787,0,0,0,69.686,46.457Z" transform="translate(39.18 49.342)"/></g></svg>