<svg xmlns="http://www.w3.org/2000/svg" width="112" height="113" viewBox="0 0 112 113"><defs><style>.a{fill:#fff9e9;}.b{fill:#fce484;}</style></defs><g transform="translate(-19 -21)"><rect class="a" width="112" height="113" rx="20" transform="translate(19 21)"/><path class="b" d="M50.031,54.945v2.234H0V54.945A1.34,1.34,0,0,1,1.34,53.6H3.574V13.4a2.68,2.68,0,0,1,2.68-2.68h9.827V2.68A2.68,2.68,0,0,1,18.762,0H31.269a2.68,2.68,0,0,1,2.68,2.68v8.041h9.827a2.68,2.68,0,0,1,2.68,2.68V53.6h2.234A1.34,1.34,0,0,1,50.031,54.945ZM34.4,21.442H29.929a1.34,1.34,0,0,0-1.34,1.34v4.467a1.34,1.34,0,0,0,1.34,1.34H34.4a1.34,1.34,0,0,0,1.34-1.34V22.782A1.34,1.34,0,0,0,34.4,21.442ZM15.635,28.589H20.1a1.34,1.34,0,0,0,1.34-1.34V22.782a1.34,1.34,0,0,0-1.34-1.34H15.635a1.34,1.34,0,0,0-1.34,1.34v4.467A1.34,1.34,0,0,0,15.635,28.589ZM27.249,42.884H22.782a1.34,1.34,0,0,0-1.34,1.34V53.6h7.147V44.224A1.34,1.34,0,0,0,27.249,42.884ZM34.4,32.163H29.929a1.34,1.34,0,0,0-1.34,1.34V37.97a1.34,1.34,0,0,0,1.34,1.34H34.4a1.34,1.34,0,0,0,1.34-1.34V33.5A1.34,1.34,0,0,0,34.4,32.163ZM21.442,33.5a1.34,1.34,0,0,0-1.34-1.34H15.635a1.34,1.34,0,0,0-1.34,1.34V37.97a1.34,1.34,0,0,0,1.34,1.34H20.1a1.34,1.34,0,0,0,1.34-1.34ZM20.325,10.721h2.9v2.9a.67.67,0,0,0,.67.67h2.234a.67.67,0,0,0,.67-.67v-2.9h2.9a.67.67,0,0,0,.67-.67V7.817a.67.67,0,0,0-.67-.67H26.8v-2.9a.67.67,0,0,0-.67-.67H23.9a.67.67,0,0,0-.67.67v2.9h-2.9a.67.67,0,0,0-.67.67v2.234A.67.67,0,0,0,20.325,10.721Z" transform="translate(49.901 49.084)"/></g></svg>