<svg xmlns="http://www.w3.org/2000/svg" xmlns:xlink="http://www.w3.org/1999/xlink" width="642.861" height="561.181" viewBox="0 0 642.861 561.181"><defs><style>.a{opacity:0.19;fill:url(#a);}</style><linearGradient id="a" y1="0.5" x2="0.416" y2="0.13" gradientUnits="objectBoundingBox"><stop offset="0" stop-color="#00b3b5"/><stop offset="1" stop-color="#1afcff"/></linearGradient></defs><path class="a" d="M270.792,638.581a17.125,17.125,0,1,0,9.868,3.188l29.119-50.4h74.149l29.119,50.4a16.973,16.973,0,1,0,26.72,15.455h58.268l2.763-1.64,37.1-64.22h75.91l.486-.82,37.742-64.888h58.268A16.973,16.973,0,1,0,737,510.2l29.119-50.4h76.062l.456-.82,38.5-66.8-38.016-65.86,38.016-65.86L843.123,194.69l29.089-50.4a17.095,17.095,0,1,0-2.824-1.64L840.3,193.08H782.031a16.973,16.973,0,1,0-26.72,15.425L726.222,258.94H652.043l-37.1-64.25,29.119-50.4a16.913,16.913,0,1,0-2.824-1.609l-29.119,50.4H536.2l-.486.82-37.56,65.04h-74.3l-29.089-50.435a16.974,16.974,0,1,0-9.868,3.219,16.61,16.61,0,0,0,7.044-1.579l29.089,50.435-38.016,65.859,38.016,65.617-37.074,64.22H325.69a16.973,16.973,0,1,0-26.72,15.455l-30.06,52.074,38.046,65.86-29.119,50.4A16.518,16.518,0,0,0,270.792,638.581ZM538,327.9h74.149l15.85,27.328,13.269,22.986a16.913,16.913,0,0,0,0,27.631l-29.119,50.4H553.876a16.913,16.913,0,0,0-23.9-13.816l-10.567-18.218L500.8,392.056l24.686-42.51Zm217.011-16.032,8.32,14.423L740.068,366.55l-13.816,23.957h-58.3a16.852,16.852,0,0,0-23.9-13.816l-29.089-50.4,37.074-64.25h74.179Zm-256.94,81.983,18.552,32.095,10.567,18.218a16.913,16.913,0,0,0,0,27.631l-29.119,50.4h-74.21L402.6,485.425,386.753,458.1l37.074-64.22ZM386.813,589.817l37.044-64.159h74.179l37.074,64.25-37.074,64.22H439.768a16.943,16.943,0,0,0-16.852-15.395,16.613,16.613,0,0,0-7.045,1.579Zm225.331-1.67h-74.21l-18.522-32.125L500.8,523.9l29.119-50.435a16.913,16.913,0,0,0,23.9-13.816h58.238L642.2,511.811l6.953,12.146Zm115.019-81.224a16.913,16.913,0,0,0-16.822,15.364h-58.3l-5.131-8.9-31.943-55.384,24.99-43.329,4.1-7.075a16.913,16.913,0,0,0,23.9-13.816h58.269l18.522,32.095L763.3,458.006l-29.119,50.4a16.972,16.972,0,0,0-7.044-1.549Zm113.167-50.5H766.12l-18.552-32.095-18.522-32.277,17.7-30.364,19.463-33.734h74.179l36.922,64.1Zm-75.12-244.795a16.943,16.943,0,0,0,16.852-15.395H840.33l36.983,64.189L840.3,324.648H766.12l-14.909-25.84-22.2-38.38,29.119-50.556a16.609,16.609,0,0,0,7.044,1.7ZM538,196.238h74.149l37.1,64.25-37.135,64.159H537.965l-29.817-51.619-7.287-12.6ZM423.888,262.1h74.179l28.785,49.827,8.289,14.423-34.342,59.3-2.824,4.858H423.857l-37.074-64.22ZM301.824,473.522a16.913,16.913,0,0,0,23.9-13.816h58.269l37.074,64.25-37.074,64.189H309.78l-37.1-64.189Z" transform="translate(-253.582 -111.653)"/></svg>