<svg xmlns="http://www.w3.org/2000/svg" width="29.629" height="27.513" viewBox="0 0 29.629 27.513"><defs><style>.a{fill:#ffdc00;}</style></defs><path class="a" d="M30.755,12.9H21.026L18.07,4.076a1.071,1.071,0,0,0-2.011,0L13.1,12.9H3.308A1.061,1.061,0,0,0,2.25,13.957a.778.778,0,0,0,.02.179,1.017,1.017,0,0,0,.443.747l8,5.635L7.64,29.439A1.061,1.061,0,0,0,8,30.63a1.023,1.023,0,0,0,.6.258,1.3,1.3,0,0,0,.661-.238l7.8-5.562,7.8,5.562a1.239,1.239,0,0,0,.661.238.95.95,0,0,0,.589-.258,1.048,1.048,0,0,0,.364-1.19l-3.069-8.922,7.93-5.688.192-.165a1.109,1.109,0,0,0,.344-.708A1.12,1.12,0,0,0,30.755,12.9ZM27.62,15.227l-5.278,3.79a1.857,1.857,0,0,0-.675,2.1l1.991,5.8a.265.265,0,0,1-.4.3l-5.119-3.651-.007-.007a2.466,2.466,0,0,1-1.065-2.017V7.694a.129.129,0,0,1,.251-.04h0l1.958,5.833a1.849,1.849,0,0,0,1.753,1.263h6.435A.264.264,0,0,1,27.62,15.227Z" transform="translate(-2.25 -3.375)"/></svg>